<?xml version="1.0" encoding="iso-8859-1"?>
<!-- Generator: Adobe Illustrator 19.0.0, SVG Export Plug-In . SVG Version: 6.00 Build 0)  -->
<svg version="1.1" id="Capa_1" xmlns="http://www.w3.org/2000/svg" xmlns:xlink="http://www.w3.org/1999/xlink" x="0px" y="0px"
	 viewBox="0 0 476.073 476.073" style="enable-background:new 0 0 476.073 476.073;" xml:space="preserve">
<g>
	<g>
		<path d="M431.569,295.798L431.569,295.798l-84.16-84.152c-3.124-3.123-8.188-3.123-11.312,0l-45.256,45.256L138.273,104.326
			c2.716-19.316-2.045-38.941-13.312-54.864l13.176-13.176c3.123-3.124,3.123-8.188,0-11.312L115.481,2.342
			c-3.124-3.123-8.188-3.123-11.312,0L2.353,104.158c-3.123,3.124-3.123,8.188,0,11.312l22.608,22.632
			c3.124,3.123,8.188,3.123,11.312,0l13.12-13.12c13.094,8.894,28.444,13.887,44.264,14.4c3.579-0.033,7.146-0.421,10.648-1.16
			l152.6,152.616l-45.256,45.256c-3.123,3.124-3.123,8.188,0,11.312l84.152,84.152c34.405,34.366,83.162,50.221,131.2,42.664
			l35.048-5.528c3.424-0.544,6.108-3.231,6.648-6.656l5.536-35.056C481.736,378.953,465.889,330.226,431.569,295.798z
			 M346.377,335.062l8.456,19.768l-19.776-8.456l-78.152-78.16l11.312-11.312L346.377,335.062z M30.633,121.134l-11.272-11.312
			l90.464-90.512l11.312,11.32L30.633,121.134z M104.505,121.87c-15.044,3.177-30.734,0.107-43.472-8.504l52.336-52.336
			c8.627,12.765,11.688,28.491,8.48,43.56C119.497,112.992,112.916,119.549,104.505,121.87z M132.465,143.766l-11.88-11.88
			c0.216-0.16,0.376-0.376,0.632-0.528c4.023-2.665,7.472-6.109,10.144-10.128c0.16-0.232,0.384-0.424,0.544-0.664l11.88,11.88
			l-5.656,5.664L132.465,143.766z M245.593,256.902L143.761,155.078l11.32-11.32L256.905,245.59L245.593,256.902z M458.425,424.486
			l-4.664,29.272l-29.304,4.624c-42.974,6.726-86.577-7.453-117.376-38.168l-78.464-78.456l39.6-39.592l56.624,56.624
			c0.72,0.722,1.573,1.298,2.512,1.696l39.536,16.912c0.897,0.367,1.855,0.565,2.824,0.584c0.104,0,0.216,0.064,0.328,0.064
			s0.344-0.088,0.528-0.104c0.67-0.046,1.331-0.178,1.968-0.392c0.272-0.075,0.539-0.166,0.8-0.272
			c3.971-1.692,5.82-6.282,4.128-10.254c-0.021-0.049-0.042-0.098-0.064-0.146l-16.928-39.52c-0.4-0.938-0.976-1.79-1.696-2.512
			l-56.624-56.624l39.6-39.6l78.504,78.496C450.958,337.922,465.135,381.516,458.425,424.486z"/>
	</g>
</g>
<g>
</g>
<g>
</g>
<g>
</g>
<g>
</g>
<g>
</g>
<g>
</g>
<g>
</g>
<g>
</g>
<g>
</g>
<g>
</g>
<g>
</g>
<g>
</g>
<g>
</g>
<g>
</g>
<g>
</g>
</svg>
